<svg width="60" height="60" viewBox="0 0 60 60" fill="none" xmlns="http://www.w3.org/2000/svg">
<path d="M46.3949 59.9999C45.8109 59.9982 45.2288 59.9327 44.6584 59.8045C33.7994 57.5073 23.7953 52.1212 15.7976 44.266C7.97052 36.3935 2.54205 26.3702 0.168936 15.4087C-0.110883 14.0426 -0.0422043 12.6258 0.368365 11.2947C0.778935 9.96352 1.51758 8.76284 2.51323 7.80813L9.45929 0.971174C9.81407 0.628061 10.2356 0.365312 10.6964 0.200076C11.1572 0.0348394 11.6469 -0.0291703 12.1335 0.0122242C12.6381 0.066055 13.125 0.232274 13.56 0.499191C13.995 0.766108 14.3676 1.12724 14.6515 1.5572L23.334 14.6806C23.6596 15.1898 23.8168 15.7925 23.7824 16.3999C23.748 17.0072 23.5239 17.5873 23.143 18.0547L18.7844 23.3822C20.5203 27.3111 22.9786 30.8621 26.0256 33.8418C29.0529 36.9297 32.631 39.3952 36.5663 41.105L41.9668 36.7187C42.4204 36.3521 42.9724 36.1354 43.5493 36.0973C44.1262 36.0592 44.7009 36.2016 45.1967 36.5056L58.3074 45.1717C58.7573 45.4464 59.1406 45.8217 59.4286 46.2694C59.7166 46.7171 59.9017 47.2256 59.9702 47.7569C60.0387 48.2882 59.9887 48.8284 59.8241 49.3372C59.6594 49.8459 59.3843 50.3099 59.0194 50.6945L52.247 57.5492C51.4777 58.3321 50.5646 58.9516 49.5603 59.3722C48.556 59.7928 47.4802 60.0061 46.3949 59.9999ZM11.8557 3.52837L4.90962 10.3653C4.34951 10.8991 3.93489 11.5727 3.70654 12.32C3.47818 13.0672 3.44396 13.8624 3.60723 14.6273C5.81386 24.9132 10.8862 34.3254 18.2113 41.7265C25.7377 49.1168 35.1521 54.1829 45.3704 56.3417C46.1438 56.507 46.9453 56.4735 47.703 56.2442C48.4607 56.0148 49.1509 55.5968 49.7117 55.0275L56.4841 48.1728L43.8249 39.8086L38.0249 44.5324C37.8029 44.7121 37.5413 44.8335 37.2628 44.8862C36.9843 44.9388 36.6975 44.921 36.4273 44.8343C31.6115 43.0197 27.2472 40.1393 23.6466 36.399C19.9224 32.8424 17.0316 28.4717 15.1898 23.613C15.1119 23.3189 15.1093 23.0092 15.1823 22.7138C15.2553 22.4183 15.4014 22.147 15.6065 21.926L20.2951 16.1901L11.8557 3.52837Z" fill="black"/>
</svg>
