<svg width="50" height="64" viewBox="0 0 50 64" fill="none" xmlns="http://www.w3.org/2000/svg">
<path d="M49.054 28.1839C49.576 28.1839 50 27.7599 50 27.2374V12.3941C50 11.1944 49.0238 10.2182 47.8236 10.2182H44.1123V7.28602C44.1123 6.08485 43.137 5.10958 41.9358 5.10958H38.103V2.17644C38.103 0.976738 37.1263 0 35.9266 0H9.8069C9.28438 0 8.86041 0.423969 8.86041 0.946001C8.86041 1.46852 9.28438 1.89249 9.8069 1.89249H35.9266C36.0827 1.89249 36.2105 2.01983 36.2105 2.17644V51.5534C36.2105 51.7095 36.0827 51.8369 35.9266 51.8369C33.5784 51.8369 3.3815 51.8369 2.17644 51.8369C2.01983 51.8369 1.89249 51.7095 1.89249 51.5534V2.17644C1.89249 2.01983 2.01983 1.89249 2.17644 1.89249H6.02192C6.54395 1.89249 6.96792 1.46852 6.96792 0.946001C6.96792 0.423969 6.54395 0 6.02192 0H2.17644C0.976738 0 0 0.976738 0 2.17644V51.5534C0 52.7531 0.976738 53.7294 2.17644 53.7294H6.01069V56.6615C6.01069 57.8627 6.98548 58.838 8.18567 58.838H11.8975V61.7711C11.8975 62.9708 12.8737 63.9475 14.0734 63.9475H47.8236C49.0238 63.9475 50 62.9708 50 61.7711V31.0224C50 30.5004 49.576 30.0764 49.054 30.0764C48.5305 30.0764 48.1075 30.5004 48.1075 31.0224V61.7711C48.1075 61.9277 47.9802 62.0551 47.8236 62.0551H14.0734C13.9173 62.0551 13.79 61.9277 13.79 61.7711V58.838H41.9358C43.137 58.838 44.1123 57.8627 44.1123 56.6615V43.5756C44.1123 43.0536 43.6893 42.6296 43.1658 42.6296C42.6432 42.6296 42.2198 43.0536 42.2198 43.5756V56.6615C42.2198 56.8181 42.0934 56.9455 41.9358 56.9455C41.0357 56.9455 9.09557 56.9455 8.18567 56.9455C8.02906 56.9455 7.9027 56.8181 7.9027 56.6615V53.7294H35.9266C37.1263 53.7294 38.103 52.7531 38.103 51.5534C38.103 50.1717 38.103 9.18924 38.103 7.00207H41.9358C42.0934 7.00207 42.2198 7.12941 42.2198 7.28602V12.1107V39.7911C42.2198 40.3146 42.6432 40.7371 43.1658 40.7371C43.6893 40.7371 44.1123 40.3146 44.1123 39.7911V12.1107H47.8236C47.9802 12.1107 48.1075 12.238 48.1075 12.3941V27.2374C48.1075 27.7599 48.5305 28.1839 49.054 28.1839Z" fill="black"/>
<path d="M24.3907 9.3672C24.3907 6.42333 21.9956 4.02832 19.0518 4.02832C16.1079 4.02832 13.7129 6.42333 13.7129 9.3672C13.7129 12.3111 16.1079 14.7056 19.0518 14.7056C21.9956 14.7056 24.3907 12.3111 24.3907 9.3672ZM15.6054 9.3672C15.6054 7.46642 17.1515 5.92081 19.0518 5.92081C20.9521 5.92081 22.4982 7.46691 22.4982 9.3672C22.4982 11.2675 20.9521 12.8136 19.0518 12.8136C17.1515 12.8136 15.6054 11.2675 15.6054 9.3672Z" fill="black"/>
<path d="M31.9629 10.3133C32.4859 10.3133 32.9094 9.88979 32.9094 9.36727C32.9094 8.84426 32.4859 8.42078 31.9629 8.42078H27.5261C27.0036 8.42078 26.5801 8.84426 26.5801 9.36727C26.5801 9.88979 27.0036 10.3133 27.5261 10.3133H31.9629Z" fill="black"/>
<path d="M10.5771 8.42078H6.14034C5.61782 8.42078 5.19385 8.84426 5.19385 9.36727C5.19385 9.88979 5.61782 10.3133 6.14034 10.3133H10.5771C11.0996 10.3133 11.5231 9.88979 11.5231 9.36727C11.5231 8.84426 11.0996 8.42078 10.5771 8.42078Z" fill="black"/>
<path d="M7.38184 18.3482C7.38184 18.8707 7.80532 19.2942 8.32784 19.2942H29.7761C30.2986 19.2942 30.7221 18.8707 30.7221 18.3482C30.7221 17.8252 30.2986 17.4017 29.7761 17.4017H8.32784C7.80532 17.4017 7.38184 17.8252 7.38184 18.3482Z" fill="black"/>
<path d="M29.7756 21.9902H8.32784C7.80532 21.9902 7.38184 22.4137 7.38184 22.9362C7.38184 23.4588 7.80532 23.8822 8.32784 23.8822H29.7756C30.2986 23.8822 30.7221 23.4588 30.7221 22.9362C30.7221 22.4137 30.2986 21.9902 29.7756 21.9902Z" fill="black"/>
<path d="M29.7756 26.5784H8.32784C7.80532 26.5784 7.38184 27.0018 7.38184 27.5244C7.38184 28.0474 7.80532 28.4709 8.32784 28.4709H29.7756C30.2986 28.4709 30.7221 28.0474 30.7221 27.5244C30.7221 27.0018 30.2986 26.5784 29.7756 26.5784Z" fill="black"/>
<path d="M29.7756 31.1665H8.32784C7.80532 31.1665 7.38184 31.59 7.38184 32.113C7.38184 32.6355 7.80532 33.059 8.32784 33.059H29.7756C30.2986 33.059 30.7221 32.6355 30.7221 32.113C30.7221 31.59 30.2986 31.1665 29.7756 31.1665Z" fill="black"/>
<path d="M29.7756 35.7549H8.32784C7.80532 35.7549 7.38184 36.1784 7.38184 36.7014C7.38184 37.2239 7.80532 37.6474 8.32784 37.6474H29.7756C30.2986 37.6474 30.7221 37.2239 30.7221 36.7014C30.7221 36.1784 30.2986 35.7549 29.7756 35.7549Z" fill="black"/>
<path d="M30.1864 40.5576C29.782 40.2263 29.1863 40.2854 28.8545 40.6893L24.3377 46.198L22.2437 44.146C21.8705 43.7806 21.2714 43.7864 20.9055 44.1596C20.54 44.5329 20.5459 45.132 20.9191 45.4974L23.2639 47.7958C23.9225 48.4413 24.9924 48.3832 25.5779 47.6699L30.3182 41.8895C30.6494 41.4856 30.5904 40.8889 30.1864 40.5576Z" fill="black"/>
</svg>
