<svg width="60" height="40" viewBox="0 0 60 40" fill="none" xmlns="http://www.w3.org/2000/svg">
<path d="M55.7999 16.9574L54.2461 10.4073C54.6709 10.3122 54.9896 9.915 54.9896 9.43913V8.38304C54.9896 6.09004 53.2195 4.22462 51.0439 4.22462H43.9667V2.04623C43.9667 0.917891 43.0958 0 42.0252 0H5.94986C4.87923 0 4.00829 0.917891 4.00829 2.04623V20.0002C4.00829 20.5469 4.42888 20.9903 4.94778 20.9903C5.46657 20.9903 5.88728 20.5471 5.88728 20.0002V2.04623C5.88728 2.0098 5.91528 1.98028 5.94986 1.98028H42.025C42.0596 1.98028 42.0876 2.0098 42.0876 2.04623V20.0004C42.0876 20.5472 42.5082 20.9906 43.0271 20.9906C43.5459 20.9906 43.9666 20.5473 43.9666 20.0004V18.878H55.0489C55.0499 18.878 55.0506 18.8783 55.0514 18.8783C55.0523 18.8783 55.0532 18.8781 55.054 18.8781C56.4177 18.8791 57.5756 19.8225 57.9734 21.1224H55.0521C54.5333 21.1224 54.1126 21.5656 54.1126 22.1125V24.2247C54.1126 25.9354 55.4331 27.327 57.0562 27.327H58.121V31.6834H55.6645C54.8576 29.2278 52.6426 27.4589 50.0416 27.4589C47.4406 27.4589 45.2256 29.2278 44.4187 31.6834H43.9664V24.2246C43.9664 23.6778 43.5458 23.2344 43.0269 23.2344C42.5081 23.2344 42.0874 23.6777 42.0874 24.2246V31.6832H22.5958C21.7888 29.2275 19.5739 27.4587 16.9729 27.4587C14.3719 27.4587 12.1568 29.2275 11.35 31.6832H5.94986C5.91528 31.6832 5.88728 31.6536 5.88728 31.6172V29.4389H9.95826C10.4771 29.4389 10.8978 28.9957 10.8978 28.4488C10.8978 27.9019 10.4772 27.4587 9.95826 27.4587H0.939494C0.420704 27.4587 0 27.9019 0 28.4488C0 28.9957 0.420587 29.4389 0.939494 29.4389H4.00841V31.6172C4.00841 32.7456 4.87934 33.6634 5.94997 33.6634H11.0247C11.0244 33.6854 11.023 33.7073 11.023 33.7294C11.023 37.187 13.6922 40 16.9729 40C20.2536 40 22.9227 37.187 22.9227 33.7294C22.9227 33.7072 22.9213 33.6854 22.9211 33.6634H44.0934C44.0932 33.6854 44.0918 33.7073 44.0918 33.7294C44.0918 37.187 46.7609 40 50.0416 40C53.3223 40 55.9915 37.187 55.9915 33.7294C55.9915 33.7072 55.9901 33.6854 55.9898 33.6634H59.0605C59.5793 33.6634 60 33.2202 60 32.6733V22.1123C60.0001 19.5048 58.1747 17.3384 55.7999 16.9574ZM43.9667 6.20478H51.0439C52.1836 6.20478 53.1108 7.18195 53.1108 8.38304V8.44899H43.9667V6.20478ZM43.9667 16.8979V10.4292H52.3146L53.849 16.8979H43.9667ZM16.9729 38.0201C14.7282 38.0201 12.9019 36.0955 12.9019 33.7296C12.9019 31.3638 14.7282 29.4392 16.9729 29.4392C19.2176 29.4392 21.0439 31.3638 21.0439 33.7296C21.0439 36.0955 19.2176 38.0201 16.9729 38.0201ZM50.0419 38.0201C47.7971 38.0201 45.9709 36.0955 45.9709 33.7296C45.9709 31.3638 47.7971 29.4392 50.0419 29.4392C52.2866 29.4392 54.1128 31.3638 54.1128 33.7296C54.1128 36.0955 52.2866 38.0201 50.0419 38.0201ZM58.1212 25.3467H57.0565C56.4694 25.3467 55.9917 24.8433 55.9917 24.2246V23.1024H58.1211L58.1212 25.3467Z" fill="black"/>
<path d="M16.9729 31.6834C15.9023 31.6834 15.0313 32.6013 15.0313 33.7296C15.0313 34.858 15.9023 35.7759 16.9729 35.7759C18.0435 35.7759 18.9145 34.858 18.9145 33.7296C18.9145 32.6013 18.0435 31.6834 16.9729 31.6834Z" fill="black"/>
<path d="M50.0419 31.6834C48.9712 31.6834 48.1003 32.6013 48.1003 33.7296C48.1003 34.858 48.9712 35.7759 50.0419 35.7759C51.1125 35.7759 51.9834 34.858 51.9834 33.7296C51.9834 32.6013 51.1125 31.6834 50.0419 31.6834Z" fill="black"/>
<path d="M39.0188 27.459H24.9896C24.4708 27.459 24.0501 27.9023 24.0501 28.4492C24.0501 28.996 24.4707 29.4393 24.9896 29.4393H39.0188C39.5376 29.4393 39.9583 28.996 39.9583 28.4492C39.9583 27.9023 39.5377 27.459 39.0188 27.459Z" fill="black"/>
<path d="M14.9687 23.2345H2.94364C2.42485 23.2345 2.00415 23.6778 2.00415 24.2247C2.00415 24.7716 2.42473 25.2148 2.94364 25.2148H14.9687C15.4875 25.2148 15.9082 24.7716 15.9082 24.2247C15.9082 23.6778 15.4875 23.2345 14.9687 23.2345Z" fill="black"/>
<path d="M32.6685 9.79495C32.3017 9.40837 31.7068 9.40838 31.34 9.79507L22.9854 18.5999L18.6393 14.0194C18.2724 13.6327 17.6775 13.6327 17.3107 14.0194C16.9438 14.4061 16.9438 15.0329 17.3107 15.4196L22.3212 20.7002C22.5046 20.8936 22.7451 20.9902 22.9854 20.9902C23.2258 20.9902 23.4664 20.8936 23.6497 20.7002L32.6684 11.1952C33.0353 10.8084 33.0353 10.1816 32.6685 9.79495Z" fill="black"/>
</svg>
