<svg width="50" height="50" viewBox="0 0 50 50" fill="none" xmlns="http://www.w3.org/2000/svg">
<path fill-rule="evenodd" clip-rule="evenodd" d="M32.6307 32.6309C32.9209 32.3403 33.2655 32.1098 33.6449 31.9526C34.0243 31.7953 34.4309 31.7144 34.8416 31.7144C35.2523 31.7144 35.6589 31.7953 36.0383 31.9526C36.4176 32.1098 36.7623 32.3403 37.0525 32.6309L49.0836 44.662C49.67 45.248 49.9996 46.0429 49.9999 46.8718C50.0002 47.7008 49.6712 48.4959 49.0852 49.0823C48.4993 49.6687 47.7044 49.9982 46.8754 49.9985C46.0464 49.9988 45.2513 49.6698 44.6649 49.0838L32.6338 37.0527C32.3432 36.7625 32.1128 36.4178 31.9555 36.0385C31.7982 35.6591 31.7173 35.2525 31.7173 34.8418C31.7173 34.4311 31.7982 34.0245 31.9555 33.6451C32.1128 33.2657 32.3432 32.9211 32.6338 32.6309H32.6307Z" fill="black"/>
<path fill-rule="evenodd" clip-rule="evenodd" d="M20.3123 37.4997C22.5694 37.4997 24.8044 37.0551 26.8896 36.1914C28.9749 35.3276 30.8696 34.0616 32.4656 32.4656C34.0616 30.8696 35.3276 28.9749 36.1914 26.8896C37.0551 24.8044 37.4997 22.5694 37.4997 20.3123C37.4997 18.0552 37.0551 15.8203 36.1914 13.735C35.3276 11.6497 34.0616 9.75502 32.4656 8.15903C30.8696 6.56304 28.9749 5.29703 26.8896 4.43328C24.8044 3.56954 22.5694 3.12497 20.3123 3.12497C15.7539 3.12497 11.3823 4.93578 8.15903 8.15903C4.93578 11.3823 3.12497 15.7539 3.12497 20.3123C3.12497 24.8707 4.93578 29.2424 8.15903 32.4656C11.3823 35.6889 15.7539 37.4997 20.3123 37.4997ZM40.6246 20.3123C40.6246 25.6995 38.4846 30.866 34.6753 34.6753C30.866 38.4846 25.6995 40.6246 20.3123 40.6246C14.9252 40.6246 9.75864 38.4846 5.94934 34.6753C2.14004 30.866 0 25.6995 0 20.3123C0 14.9252 2.14004 9.75864 5.94934 5.94934C9.75864 2.14004 14.9252 0 20.3123 0C25.6995 0 30.866 2.14004 34.6753 5.94934C38.4846 9.75864 40.6246 14.9252 40.6246 20.3123Z" fill="black"/>
</svg>
