<svg width="50" height="63" viewBox="0 0 50 63" fill="none" xmlns="http://www.w3.org/2000/svg">
<path d="M43.7496 0.53125H43.75C46.9459 0.53125 49.5 3.06066 49.5 6.25V56.25C49.5 59.4426 46.9426 62 43.75 62H6.25C3.05739 62 0.5 59.4426 0.5 56.25V6.25C0.5 3.05739 3.05739 0.5 6.25 0.5L43.7496 0.53125ZM43.75 56.75H44.25V56.25V6.25V5.75H43.75H6.21875H5.71844L5.71875 6.25031L5.75 56.2503L5.75031 56.75H6.25H43.75Z" fill="black" stroke="#FEDC45"/>
<path d="M15.125 12.5C15.125 13.9497 13.9497 15.125 12.5 15.125C11.0503 15.125 9.875 13.9497 9.875 12.5C9.875 11.0503 11.0503 9.875 12.5 9.875C13.9497 9.875 15.125 11.0503 15.125 12.5Z" fill="black" stroke="#FEDC45"/>
<path d="M24.5 12.5C24.5 13.9497 23.3247 15.125 21.875 15.125C20.4253 15.125 19.25 13.9497 19.25 12.5C19.25 11.0503 20.4253 9.875 21.875 9.875C23.3247 9.875 24.5 11.0503 24.5 12.5Z" fill="black" stroke="#FEDC45"/>
<path d="M32.7286 29.7714L32.375 29.4179L32.0214 29.7714L17.2714 44.5214L16.9179 44.875L17.2714 45.2286C21.5292 49.4863 28.4708 49.4863 32.7286 45.2286C36.9863 40.9708 36.9863 34.0292 32.7286 29.7714ZM40.125 37.5C40.125 45.8489 33.3489 52.625 25 52.625C16.6511 52.625 9.875 45.8489 9.875 37.5C9.875 29.1511 16.6511 22.375 25 22.375C33.3489 22.375 40.125 29.1511 40.125 37.5Z" fill="black" stroke="#FEDC45"/>
</svg>
