<svg width="57" height="60" viewBox="0 0 57 60" fill="none" xmlns="http://www.w3.org/2000/svg">
<path d="M22.6826 28.772L22.2735 28.8476V29.2636V45.8636H19.9213H19.4213V46.3636C19.4213 48.3638 20.7624 49.5125 22.7299 50.9907L22.7496 51.0054L22.7706 51.0182C24.3589 51.9835 25.6663 53.3126 26.5751 54.8823C27.3985 56.3044 27.8714 57.8836 27.9621 59.5H26.1055C26.0093 58.1107 25.5812 56.7597 24.8528 55.552C24.0384 54.2019 22.8764 53.0771 21.4804 52.2835L21.4799 52.2832C20.374 51.6565 19.4431 50.7873 18.7632 49.7499C18.0835 48.7126 17.674 47.5366 17.5672 46.3199L17.5272 45.8636H17.0691H14.648L12.2015 29.4354L12.1524 29.1053L11.8286 29.0241C8.25663 28.1282 5.1529 26.0214 3.09302 23.1032C1.03359 20.1855 0.156696 16.6545 0.621703 13.1683C1.08675 9.6818 2.86317 6.47134 5.62612 4.13835C8.38944 1.80505 11.9499 0.510098 15.6437 0.5C19.8547 0.500143 26.5734 1.84857 32.2835 3.21357C35.1291 3.89383 37.7086 4.57422 39.5767 5.0846C40.5107 5.33975 41.2666 5.55233 41.7887 5.70105C41.9667 5.75175 42.1175 5.79502 42.239 5.83003V24.1691C35.8052 26.016 29.2781 27.5522 22.6826 28.772ZM15.6879 4.95657L15.6655 4.95455H15.643C12.8699 4.95455 10.206 6.00771 8.23862 7.88897C6.27042 9.77095 5.16029 12.3284 5.16029 15C5.16029 17.6716 6.27042 20.2291 8.23862 22.111C10.206 23.9923 12.8699 25.0455 15.643 25.0455H15.6655L15.6879 25.0434C22.9797 24.3856 30.1809 23.0084 37.1767 20.9339L37.5346 20.8278V20.4545V9.54545V9.1722L37.1767 9.06609C30.1809 6.99158 22.9797 5.61444 15.6879 4.95657ZM56.5 16.8638V18.5931C54.5408 18.5629 52.6181 18.0681 50.9062 17.1512C49.4346 16.3442 47.7794 15.9032 46.0912 15.8635V14.1341C48.0504 14.1644 49.9729 14.6591 51.6848 15.5759C53.1565 16.3831 54.8118 16.8241 56.5 16.8638ZM46.0912 8.6796C48.0504 8.70987 49.9729 9.20459 51.6848 10.1214C53.1565 10.9285 54.8118 11.3696 56.5 11.4092V13.1386C54.5408 13.1083 52.6182 12.6136 50.9062 11.6967C49.4346 10.8896 47.7794 10.4486 46.0912 10.4089V8.6796ZM46.0912 21.318V19.5887C48.0504 19.619 49.9729 20.1137 51.6848 21.0305C53.1565 21.8376 54.8118 22.2786 56.5 22.3183V24.0477C54.5408 24.0174 52.6182 23.5227 50.9062 22.6058C49.4346 21.7987 47.7794 21.3577 46.0912 21.318ZM19.4213 15C19.4213 15.7051 19.2028 16.3963 18.7905 16.9864C18.3779 17.5767 17.7892 18.0402 17.0961 18.3146C16.403 18.5892 15.639 18.6613 14.9018 18.5211C14.1646 18.3809 13.4904 18.0353 12.9633 17.5313C12.4365 17.0276 12.0804 16.3885 11.9364 15.6963C11.7925 15.0042 11.8661 14.2866 12.1492 13.6332C12.4323 12.9795 12.9135 12.4172 13.5353 12.0199C14.1573 11.6225 14.8909 11.4091 15.643 11.4091C16.6521 11.4091 17.6157 11.7926 18.3227 12.4687C19.029 13.144 19.4213 14.055 19.4213 15Z" fill="black" stroke="#FEDC45"/>
</svg>
