<svg width="53" height="59" viewBox="0 0 53 59" fill="none" xmlns="http://www.w3.org/2000/svg">
<path d="M35.7059 15.6914H7.11652C6.63146 15.6914 6.23828 16.0754 6.23828 16.5491C6.23828 17.0227 6.63146 17.4067 7.11652 17.4067H35.706C36.1911 17.4067 36.5843 17.0227 36.5843 16.5491C36.5843 16.0754 36.191 15.6914 35.7059 15.6914Z" fill="black"/>
<path d="M7.11652 11.4575H21.4111C21.8962 11.4575 22.2894 11.0735 22.2894 10.5998C22.2894 10.1261 21.8962 9.74219 21.4111 9.74219H7.11652C6.63146 9.74219 6.23828 10.1261 6.23828 10.5998C6.23828 11.0736 6.63146 11.4575 7.11652 11.4575Z" fill="black"/>
<path d="M35.7059 20.9629H7.11652C6.63146 20.9629 6.23828 21.3469 6.23828 21.8205C6.23828 22.2942 6.63146 22.6782 7.11652 22.6782H35.706C36.1911 22.6782 36.5843 22.2942 36.5843 21.8205C36.5841 21.3469 36.191 20.9629 35.7059 20.9629Z" fill="black"/>
<path d="M13.6293 52.3412H4.47994C2.97823 52.3412 1.75637 51.1481 1.75637 49.6816V4.3749C1.75637 2.9084 2.97823 1.71519 4.47994 1.71519H30.8384C30.9235 1.71519 31.0073 1.72281 31.0902 1.73375V7.08256C31.0902 9.49495 33.1 11.4575 35.5702 11.4575H41.0473C41.0586 11.5385 41.0663 11.6204 41.0663 11.7035V26.3083C41.0663 26.782 41.4595 27.1659 41.9445 27.1659C42.4296 27.1659 42.8228 26.782 42.8228 26.3083V11.7036C42.8228 10.7629 42.4476 9.87834 41.7664 9.21302L33.3886 1.03164C32.7074 0.366425 31.8017 0 30.8384 0H4.47994C2.00962 0 0 1.96262 0 4.3749V49.6816C0 52.0939 2.00974 54.0564 4.47994 54.0564H13.6293C14.1144 54.0564 14.5075 53.6724 14.5075 53.1988C14.5075 52.7251 14.1144 52.3412 13.6293 52.3412ZM39.8244 9.74227H35.5703C34.0686 9.74227 32.8467 8.54905 32.8467 7.08256V2.92822L39.8244 9.74227Z" fill="black"/>
<path d="M52.7306 41.9858L45.2894 29.72C44.7471 28.8257 43.5668 28.5301 42.6506 29.0601L40.8406 30.1074C39.4356 30.9202 38.8418 32.565 39.3242 34.0226C38.7143 34.2384 38.0458 34.235 37.4301 34.0026C36.001 33.5635 34.9145 32.6802 33.1202 33.1234C30.0734 33.8809 30.166 33.843 29.8903 33.9353C28.1063 32.9434 27.0339 32.6482 25.1401 33.3636L23.4519 34.001C22.6704 34.2959 21.8091 34.226 21.0869 33.8081L20.6262 33.5429C20.851 32.2275 20.2537 30.8393 18.9888 30.1076C18.9888 30.1076 18.9888 30.1076 18.9887 30.1075L17.1788 29.0604C16.2651 28.5319 15.0814 28.8277 14.5401 29.72L7.09859 41.9859C6.55628 42.88 6.85804 44.0329 7.77406 44.5627L9.58395 45.6099C10.1316 45.9268 10.7335 46.0774 11.3282 46.0774C11.9913 46.0774 12.6451 45.8897 13.2041 45.5363L13.5813 45.7537L12.7849 46.8369C11.8359 48.1279 12.1374 49.9232 13.4597 50.85C14.0711 51.2786 14.8393 51.4744 15.6337 51.3525C15.7597 52.0721 16.1634 52.7455 16.8171 53.2039C17.431 53.6343 18.1957 53.8303 18.9915 53.7079C19.1179 54.4268 19.5213 55.0997 20.1746 55.5578C21.0526 56.1732 22.1442 56.2444 23.0539 55.865C23.2529 56.3699 23.5988 56.8258 24.0815 57.1642C25.3417 58.0475 27.0777 57.8171 28.0569 56.6728L30.1732 57.8971C31.5727 58.707 33.3786 58.2569 34.2084 56.8885C34.4206 56.5387 34.5523 56.1575 34.6004 55.7657L34.6052 55.7685C36.0027 56.5768 37.8126 56.1243 38.6404 54.7599C38.8802 54.3647 39.0116 53.936 39.0435 53.5063C40.2753 53.8088 41.6177 53.3035 42.2975 52.1831C42.5206 51.8155 42.6499 51.4185 42.6924 51.0189C44.0126 51.5248 45.5556 51.0359 46.3011 49.807C46.7021 49.146 46.8156 48.3722 46.6205 47.6278C46.5089 47.202 46.3037 46.8154 46.022 46.4889L47.1885 45.8234C48.1753 46.2189 49.3014 46.1556 50.2452 45.6097L52.0548 44.5626C52.9708 44.0331 53.2734 42.8805 52.7306 41.9858ZM10.4792 44.1342L8.66933 43.087C8.58887 43.0404 8.56217 42.9386 8.60975 42.8601L16.0512 30.5939C16.0992 30.515 16.2038 30.4894 16.2837 30.5359L18.0935 31.5829C18.8977 32.0482 19.1493 33.0555 18.6815 33.8265L12.7767 43.5599C12.3054 44.3369 11.2749 44.5944 10.4792 44.1342ZM14.4839 49.4566C13.9506 49.0827 13.8286 48.3583 14.2117 47.8372L15.3823 46.2449C15.7552 45.7376 16.4983 45.5988 17.0406 45.979C17.5729 46.3522 17.695 47.0785 17.313 47.5983L16.1423 49.1906C15.7602 49.7107 15.0159 49.8296 14.4839 49.4566ZM17.8414 51.8106C17.3091 51.4374 17.1871 50.7108 17.5692 50.1911L18.7397 48.5989C18.7397 48.5989 18.7397 48.5989 18.7397 48.5988C18.7397 48.5988 18.7397 48.5986 18.7398 48.5986L20.0317 46.8414C20.2168 46.5897 20.4912 46.4232 20.8044 46.3731C20.8694 46.3626 20.9346 46.3575 20.9993 46.3575C21.2458 46.3575 21.4857 46.4324 21.69 46.5756C21.9477 46.7564 22.1181 47.0242 22.1694 47.3301C22.2209 47.636 22.1473 47.9431 21.9621 48.1949L19.4996 51.5446C19.1169 52.0656 18.375 52.1848 17.8414 51.8106ZM21.199 54.1644C20.6669 53.7913 20.5447 53.0653 20.9261 52.5456C20.9262 52.5454 20.9265 52.5452 20.9266 52.545L23.3891 49.1953C23.771 48.6756 24.5153 48.5563 25.0474 48.9293C25.5797 49.3025 25.7018 50.0289 25.3197 50.5487L24.2256 52.0371C24.2256 52.0371 24.2256 52.0371 24.2255 52.0372L22.8571 53.8985C22.475 54.4183 21.7314 54.5378 21.199 54.1644ZM25.1058 55.7708C24.5739 55.3978 24.4516 54.6721 24.8327 54.1523L25.6523 53.0375C26.0343 52.5176 26.7786 52.3987 27.3106 52.7717C27.8428 53.1447 27.965 53.8713 27.5829 54.3911L26.764 55.5048C26.382 56.0247 25.6379 56.1441 25.1058 55.7708ZM44.7903 48.9329C44.4561 49.4836 43.7258 49.6663 43.1616 49.34C42.2064 48.7874 36.0448 45.2226 35.3878 44.8425C34.9704 44.6011 34.4318 44.7356 34.1846 45.1431C33.9374 45.5506 34.0751 46.0767 34.4924 46.3181L40.3695 49.7183L40.3696 49.7184C40.9339 50.0448 41.1221 50.7559 40.7866 51.309C40.4523 51.86 39.7215 52.0423 39.1577 51.7163C36.984 50.4588 35.219 49.4376 33.2775 48.3143C32.8599 48.0729 32.3214 48.2074 32.0742 48.6149C31.8271 49.0225 31.9648 49.5485 32.3821 49.7899L36.7124 52.2952L36.7134 52.2958C37.2779 52.6232 37.4643 53.3339 37.1295 53.886C36.7952 54.437 36.0647 54.6195 35.5005 54.2932L33.1765 52.9487C33.1762 52.9486 33.1759 52.9485 33.1757 52.9483C33.1754 52.9482 33.1752 52.948 33.175 52.9479L31.479 51.9666C31.0616 51.7251 30.523 51.8596 30.2758 52.2672C30.0286 52.6748 30.1663 53.2008 30.5836 53.4422L32.2799 54.4237C32.2802 54.4238 32.2804 54.424 32.2806 54.4241C32.8449 54.7505 33.0331 55.4614 32.6976 56.0146C32.3633 56.5656 31.6328 56.7481 31.0686 56.4218L29.0897 55.2771C29.938 53.9988 29.6154 52.2762 28.335 51.3787C27.9589 51.1152 27.5402 50.9512 27.1119 50.8807C27.5662 49.6945 27.1745 48.3097 26.0716 47.5365C25.4186 47.0785 24.6368 46.9204 23.899 47.0333C23.7677 46.2835 23.3478 45.6267 22.7143 45.1827C21.5229 44.3478 19.9038 44.5082 18.9037 45.4962C18.7004 45.1477 18.4199 44.835 18.0649 44.5862C17.0749 43.8923 15.7895 43.8858 14.8093 44.4703L14.4069 44.2383L19.9303 35.1336L20.1933 35.285C21.3546 35.9569 22.7718 36.0969 24.0852 35.6009L25.7733 34.9636C26.7394 34.599 27.2721 34.5752 28.2277 35.0155C27.6025 35.7015 27.2313 36.602 27.2313 37.5726V41.3752C27.2313 42.3852 28.0721 43.2075 29.1056 43.2082H29.1081C30.1447 43.2082 31.1195 42.8141 31.8528 42.0984C32.2803 41.6812 32.5958 41.1838 32.7849 40.6409C33.9189 41.2967 43.2875 46.7144 44.3736 47.3428C44.6468 47.5009 44.8406 47.7533 44.9193 48.0537C44.998 48.3537 44.9522 48.6661 44.7903 48.9329ZM51.16 43.087L49.35 44.1342C48.5543 44.5943 47.5238 44.3366 47.0527 43.56L44.2851 38.9979C44.0378 38.5904 43.4989 38.4559 43.0819 38.6971C42.6646 38.9385 42.5267 39.4645 42.7738 39.8721L45.5415 44.4343C45.5936 44.5201 45.6501 44.6018 45.7087 44.6814L44.9392 45.1203C44.7837 45.2103 44.6341 45.3094 44.491 45.417L32.56 38.5172C31.9755 38.1793 31.2344 38.5912 31.2344 39.255C31.2252 39.3063 31.3251 40.1878 30.6111 40.8848C30.2096 41.2766 29.6758 41.4925 29.108 41.4925C29.1076 41.4925 29.1071 41.4925 29.1066 41.4925C29.041 41.4925 28.9876 41.4397 28.9876 41.3748V37.5722C28.9876 36.5788 29.6874 35.7407 30.6339 35.5067L33.5508 34.7858C34.6092 34.5246 35.2074 35.0766 36.7922 35.6003C37.8923 36.016 39.0885 35.9903 40.1503 35.5475L40.6804 36.4213C40.9277 36.8291 41.4664 36.9634 41.8836 36.7222C42.3009 36.4808 42.4387 35.9547 42.1916 35.5472L41.1476 33.8263C40.6752 33.0477 40.9384 32.0443 41.7356 31.5828L43.5455 30.5357C43.6245 30.4899 43.7291 30.5133 43.7781 30.5939L51.2194 42.8598C51.2674 42.939 51.2409 43.0402 51.16 43.087Z" fill="black"/>
</svg>
