<svg width="51" height="44" viewBox="0 0 51 44" fill="none" xmlns="http://www.w3.org/2000/svg">
<path fill-rule="evenodd" clip-rule="evenodd" d="M49.8945 27.0078C49.6904 26.8032 49.448 26.6409 49.181 26.5301C48.9141 26.4193 48.6279 26.3623 48.3389 26.3623C48.0499 26.3623 47.7637 26.4193 47.4968 26.5301C47.2298 26.6409 46.9874 26.8032 46.7833 27.0078L35.1555 38.6399L23.5278 27.0078C23.3235 26.8035 23.081 26.6415 22.8141 26.5309C22.5472 26.4204 22.2611 26.3635 21.9722 26.3635C21.6833 26.3635 21.3972 26.4204 21.1303 26.5309C20.8634 26.6415 20.6208 26.8035 20.4166 27.0078C20.2123 27.2121 20.0502 27.4546 19.9397 27.7216C19.8291 27.9885 19.7722 28.2745 19.7722 28.5635C19.7722 28.8524 19.8291 29.1384 19.9397 29.4054C20.0502 29.6723 20.2123 29.9148 20.4166 30.1191L33.5999 43.3024C33.804 43.5071 34.0465 43.6694 34.3134 43.7802C34.5804 43.8909 34.8665 43.948 35.1555 43.948C35.4446 43.948 35.7307 43.8909 35.9977 43.7802C36.2646 43.6694 36.5071 43.5071 36.7112 43.3024L49.8945 30.1191C50.0991 29.915 50.2615 29.6725 50.3723 29.4056C50.483 29.1386 50.54 28.8525 50.54 28.5635C50.54 28.2744 50.483 27.9883 50.3723 27.7213C50.2615 27.4544 50.0991 27.2119 49.8945 27.0078Z" fill="black"/>
<path fill-rule="evenodd" clip-rule="evenodd" d="M35.1553 41.7473C35.7381 41.7473 36.2969 41.5158 36.709 41.1037C37.121 40.6917 37.3525 40.1328 37.3525 39.55L37.3525 10.9861C37.3525 8.07242 36.1951 5.27806 34.1348 3.21776C32.0745 1.15746 29.2801 0 26.3664 0L2.19695 0C1.61421 0 1.05534 0.231493 0.64328 0.643553C0.23122 1.05561 -0.000270844 1.61448 -0.000270844 2.19722C-0.000270844 2.77996 0.23122 3.33884 0.64328 3.7509C1.05534 4.16296 1.61421 4.39445 2.19695 4.39445L26.3664 4.39445C28.1146 4.39445 29.7913 5.08893 31.0274 6.3251C32.2636 7.56128 32.9581 9.2379 32.9581 10.9861L32.9581 39.55C32.9581 40.1328 33.1896 40.6917 33.6016 41.1037C34.0137 41.5158 34.5726 41.7473 35.1553 41.7473Z" fill="black"/>
</svg>
