<svg width="45" height="51" viewBox="0 0 45 51" fill="none" xmlns="http://www.w3.org/2000/svg">
<path fill-rule="evenodd" clip-rule="evenodd" d="M27.5479 0.645517C27.3432 0.84962 27.1809 1.09209 27.0701 1.35903C26.9594 1.62597 26.9023 1.91214 26.9023 2.20115C26.9023 2.49016 26.9594 2.77634 27.0701 3.04328C27.1809 3.31022 27.3432 3.55268 27.5479 3.75679L39.18 15.3845L27.5479 27.0122C27.3436 27.2165 27.1815 27.459 27.071 27.7259C26.9604 27.9929 26.9035 28.2789 26.9035 28.5678C26.9035 28.8568 26.9604 29.1428 27.071 29.4097C27.1815 29.6767 27.3436 29.9192 27.5479 30.1235C27.7521 30.3278 27.9947 30.4898 28.2616 30.6004C28.5285 30.7109 28.8146 30.7678 29.1035 30.7678C29.3924 30.7678 29.6785 30.7109 29.9454 30.6004C30.2123 30.4898 30.4548 30.3278 30.6591 30.1235L43.8425 16.9401C44.0471 16.736 44.2094 16.4936 44.3202 16.2266C44.431 15.9597 44.488 15.6735 44.488 15.3845C44.488 15.0955 44.431 14.8093 44.3202 14.5424C44.2094 14.2754 44.0471 14.033 43.8425 13.8289L30.6591 0.645517C30.455 0.440897 30.2126 0.278554 29.9456 0.167786C29.6787 0.0570173 29.3925 0 29.1035 0C28.8145 0 28.5283 0.0570173 28.2614 0.167786C27.9944 0.278554 27.752 0.440897 27.5479 0.645517Z" fill="black"/>
<path fill-rule="evenodd" clip-rule="evenodd" d="M42.2873 15.3842C42.2873 14.8015 42.0558 14.2426 41.6438 13.8306C41.2317 13.4185 40.6728 13.187 40.0901 13.187H11.5262C8.61246 13.187 5.8181 14.3445 3.7578 16.4048C1.6975 18.4651 0.540039 21.2594 0.540039 24.1731V48.3426C0.540039 48.9253 0.771532 49.4842 1.18359 49.8963C1.59565 50.3083 2.15452 50.5398 2.73726 50.5398C3.32 50.5398 3.87888 50.3083 4.29094 49.8963C4.70299 49.4842 4.93449 48.9253 4.93449 48.3426V24.1731C4.93449 22.4249 5.62896 20.7483 6.86514 19.5121C8.10132 18.2759 9.77794 17.5815 11.5262 17.5815H40.0901C40.6728 17.5815 41.2317 17.35 41.6438 16.9379C42.0558 16.5258 42.2873 15.967 42.2873 15.3842Z" fill="black"/>
</svg>
