<svg width="40" height="41" viewBox="0 0 40 41" fill="none" xmlns="http://www.w3.org/2000/svg">
<path fill-rule="evenodd" clip-rule="evenodd" d="M40 18.8942C40 29.2338 31.045 37.6156 20 37.6156C18.0191 37.6185 16.0465 37.3433 14.1325 36.7972C12.6725 37.5889 9.32 39.108 3.68 40.0975C3.18 40.1831 2.8 39.6268 2.9975 39.1294C3.8825 36.8935 4.6825 33.9141 4.9225 31.1968C1.86 27.9072 0 23.6013 0 18.8942C0 8.55468 8.955 0.172852 20 0.172852C31.045 0.172852 40 8.55468 40 18.8942ZM12.5 18.8942C12.5 19.6035 12.2366 20.2838 11.7678 20.7854C11.2989 21.2869 10.663 21.5687 10 21.5687C9.33696 21.5687 8.70107 21.2869 8.23223 20.7854C7.76339 20.2838 7.5 19.6035 7.5 18.8942C7.5 18.1849 7.76339 17.5046 8.23223 17.0031C8.70107 16.5015 9.33696 16.2197 10 16.2197C10.663 16.2197 11.2989 16.5015 11.7678 17.0031C12.2366 17.5046 12.5 18.1849 12.5 18.8942ZM22.5 18.8942C22.5 19.6035 22.2366 20.2838 21.7678 20.7854C21.2989 21.2869 20.663 21.5687 20 21.5687C19.337 21.5687 18.7011 21.2869 18.2322 20.7854C17.7634 20.2838 17.5 19.6035 17.5 18.8942C17.5 18.1849 17.7634 17.5046 18.2322 17.0031C18.7011 16.5015 19.337 16.2197 20 16.2197C20.663 16.2197 21.2989 16.5015 21.7678 17.0031C22.2366 17.5046 22.5 18.1849 22.5 18.8942ZM30 21.5687C30.663 21.5687 31.2989 21.2869 31.7678 20.7854C32.2366 20.2838 32.5 19.6035 32.5 18.8942C32.5 18.1849 32.2366 17.5046 31.7678 17.0031C31.2989 16.5015 30.663 16.2197 30 16.2197C29.337 16.2197 28.7011 16.5015 28.2322 17.0031C27.7634 17.5046 27.5 18.1849 27.5 18.8942C27.5 19.6035 27.7634 20.2838 28.2322 20.7854C28.7011 21.2869 29.337 21.5687 30 21.5687Z" fill="black"/>
</svg>
