<svg width="18" height="24" viewBox="0 0 18 24" fill="none" xmlns="http://www.w3.org/2000/svg">
<path d="M8.72181 0.542969C3.8999 0.542969 0 4.20956 0 8.74301C0 14.893 8.72181 23.9717 8.72181 23.9717C8.72181 23.9717 17.4436 14.893 17.4436 8.74301C17.4436 4.20956 13.5437 0.542969 8.72181 0.542969ZM8.72181 11.6716C7.89568 11.6716 7.10338 11.363 6.51922 10.8138C5.93506 10.2646 5.60688 9.51972 5.60688 8.74301C5.60688 7.9663 5.93506 7.2214 6.51922 6.67219C7.10338 6.12297 7.89568 5.81442 8.72181 5.81442C9.54794 5.81442 10.3402 6.12297 10.9244 6.67219C11.5086 7.2214 11.8367 7.9663 11.8367 8.74301C11.8367 9.51972 11.5086 10.2646 10.9244 10.8138C10.3402 11.363 9.54794 11.6716 8.72181 11.6716Z" fill="#FDFDFD"/>
</svg>
