<svg width="23" height="18" viewBox="0 0 23 18" fill="none" xmlns="http://www.w3.org/2000/svg">
<path d="M21.8246 5.94375C21.9941 5.79844 22.2461 5.93437 22.2461 6.16406V15.75C22.2461 16.9922 21.3119 18 20.1605 18H2.08557C0.934161 18 0 16.9922 0 15.75V6.16875C0 5.93438 0.247661 5.80312 0.421459 5.94844C1.39472 6.76406 2.68517 7.8 7.117 11.2734C8.03379 11.9953 9.58058 13.5141 11.123 13.5047C12.6742 13.5188 14.2514 11.9672 15.1334 11.2734C19.5652 7.8 20.8513 6.75938 21.8246 5.94375ZM11.123 12C12.1311 12.0188 13.5823 10.6313 14.3122 10.0594C20.0779 5.54531 20.5168 5.15156 21.8463 4.02656C22.0983 3.81562 22.2461 3.4875 22.2461 3.14062V2.25C22.2461 1.00781 21.3119 0 20.1605 0H2.08557C0.934161 0 0 1.00781 0 2.25V3.14062C0 3.4875 0.147728 3.81094 0.399734 4.02656C1.72928 5.14687 2.16812 5.54531 7.93385 10.0594C8.6638 10.6313 10.115 12.0188 11.123 12Z" fill="#FDFDFD"/>
</svg>
