<svg width="40" height="41" viewBox="0 0 40 41" fill="none" xmlns="http://www.w3.org/2000/svg">
<path d="M38.8593 28.3912L30.1091 24.6474C29.7353 24.4884 29.3199 24.4549 28.9254 24.5519C28.5308 24.649 28.1786 24.8714 27.9216 25.1856L24.0465 29.9122C17.965 27.0495 13.0707 22.1634 10.2033 16.092L14.9378 12.2234C15.2531 11.9673 15.4764 11.6156 15.5736 11.2215C15.6709 10.8275 15.6369 10.4125 15.4768 10.0395L11.7268 1.30387C11.5511 0.901729 11.2403 0.573393 10.8481 0.37548C10.4559 0.177567 10.0068 0.122481 9.57829 0.219722L1.45315 2.09164C1.03999 2.18688 0.671375 2.41913 0.407456 2.75046C0.143538 3.08179 -9.51743e-05 3.49265 4.73149e-08 3.91597C4.73149e-08 23.922 16.2425 40.1063 36.2506 40.1063C36.6748 40.1066 37.0865 39.9633 37.4186 39.6998C37.7506 39.4363 37.9833 39.0682 38.0788 38.6556L39.9538 30.5439C40.0506 30.114 39.9942 29.6639 39.7945 29.271C39.5947 28.8781 39.264 28.567 38.8593 28.3912Z" fill="black"/>
</svg>
