<svg width="20" height="19" viewBox="0 0 20 19" fill="none" xmlns="http://www.w3.org/2000/svg">
<path d="M8.15716 11.0024C9.36006 12.1925 10.8155 13.1114 12.4214 13.6944L14.5938 12.0084C14.6582 11.9651 14.7346 11.942 14.8128 11.942C14.891 11.942 14.9673 11.9651 15.0317 12.0084L19.0654 14.543C19.2186 14.6328 19.3482 14.7561 19.4441 14.9032C19.54 15.0502 19.5995 15.217 19.6179 15.3903C19.6364 15.5637 19.6132 15.7388 19.5503 15.9019C19.4875 16.0651 19.3866 16.2117 19.2556 16.3302L17.3655 18.1512C17.0948 18.412 16.7622 18.6034 16.3972 18.7084C16.0322 18.8133 15.6462 18.8285 15.2738 18.7525C11.5583 18.0041 8.13361 16.2513 5.3912 13.6944C2.70965 11.1121 0.854025 7.82638 0.0494333 4.23578C-0.03005 3.87814 -0.0134607 3.50654 0.0975934 3.15699C0.208647 2.80744 0.4104 2.49179 0.6833 2.24064L2.64252 0.397251C2.76376 0.275737 2.91162 0.182549 3.07502 0.124664C3.23842 0.0667781 3.41313 0.0456957 3.58607 0.0629948C3.75901 0.080294 3.92569 0.135526 4.07364 0.224557C4.22159 0.313587 4.34697 0.434107 4.4404 0.577094L7.12569 4.46058C7.172 4.52157 7.19701 4.59545 7.19701 4.67134C7.19701 4.74723 7.172 4.82111 7.12569 4.88209L5.35662 6.95591C5.97066 8.49072 6.92731 9.87298 8.15716 11.0024Z" fill="#FDFDFD"/>
</svg>
