<svg width="27" height="22" viewBox="0 0 27 22" fill="none" xmlns="http://www.w3.org/2000/svg">
<path d="M26.9485 2.62002C25.938 3.06539 24.8676 3.35951 23.7718 3.49297C24.927 2.79791 25.7917 1.70676 26.206 0.421579C25.1134 1.05684 23.9243 1.50805 22.6859 1.75723C21.8532 0.865209 20.75 0.273656 19.5477 0.074344C18.3453 -0.124968 17.111 0.0791059 16.0361 0.654902C14.9613 1.2307 14.1061 2.14603 13.6031 3.25887C13.1001 4.37172 12.9776 5.61987 13.2545 6.80967C8.6535 6.59397 4.57481 4.37776 1.84697 1.02977C1.3504 1.8764 1.09069 2.84158 1.09519 3.82371C1.09451 4.73672 1.31873 5.63578 1.74795 6.44103C2.17716 7.24629 2.79808 7.93283 3.55556 8.43968C2.67775 8.41308 1.81905 8.17611 1.05131 7.7486V7.81542C1.05104 9.09695 1.49277 10.3392 2.30163 11.3315C3.11048 12.3239 4.23671 13.0053 5.48944 13.2604C5.01491 13.3875 4.52599 13.4526 4.03481 13.4541C3.67959 13.4541 3.34041 13.4194 3.00206 13.3568C3.35857 14.4596 4.04916 15.4235 4.97771 16.1144C5.90626 16.8053 7.02656 17.1888 8.18269 17.2115C6.22385 18.7494 3.80682 19.5837 1.31878 19.5808C0.878096 19.5825 0.437705 19.5577 0 19.5063C2.53808 21.1367 5.48975 22.0023 8.50416 22C18.6857 22 24.2494 13.5454 24.2494 6.22347C24.2494 5.99001 24.2494 5.75232 24.2317 5.51378C25.32 4.7318 26.2579 3.75854 27 2.64117L26.9485 2.62002Z" fill="black"/>
</svg>
