<svg width="39" height="23" viewBox="0 0 39 23" fill="none" xmlns="http://www.w3.org/2000/svg">
<path d="M37.9343 21.8237C36.4684 23.3323 34.4276 23.4507 32.6355 21.8237L19.496 9.14896L6.35654 21.8237C4.56448 23.4507 2.52026 23.3323 1.06443 21.8237C-0.401489 20.3184 -0.307346 17.7747 1.06443 16.3607C2.42949 14.9468 16.85 1.13211 16.85 1.13211C17.1934 0.77405 17.6049 0.489265 18.0601 0.294755C18.5153 0.100245 19.0048 0 19.4994 0C19.9939 0 20.4834 0.100245 20.9386 0.294755C21.3938 0.489265 21.8054 0.77405 22.1488 1.13211C22.1488 1.13211 36.5626 14.9468 37.9343 16.3607C39.3095 17.7747 39.4003 20.3184 37.9343 21.8237Z" fill="#FBDF7A"/>
</svg>
